<svg width="130" height="130" viewBox="0 0 130 130" fill="none" xmlns="http://www.w3.org/2000/svg">
<g id="task-done-svgrepo-com 1">
<path id="Vector" fill-rule="evenodd" clip-rule="evenodd" d="M32.5 32.5H73.125C77.6123 32.5 81.25 28.8623 81.25 24.375C81.25 19.8877 77.6123 16.25 73.125 16.25H32.5C23.5254 16.25 16.25 23.5254 16.25 32.5V97.5C16.25 106.475 23.5254 113.75 32.5 113.75H97.5C106.475 113.75 113.75 106.475 113.75 97.5V81.25C113.75 76.7626 110.112 73.125 105.625 73.125C101.138 73.125 97.5 76.7626 97.5 81.25V97.5H32.5V32.5ZM123.558 18.6297C120.385 15.4568 115.24 15.4568 112.067 18.6297L69.0625 61.6345L62.6203 55.1922C59.4472 52.0193 54.3028 52.0193 51.1297 55.1922C47.9568 58.3653 47.9568 63.5097 51.1297 66.6828L63.3172 78.8703C64.841 80.394 66.9076 81.25 69.0625 81.25C71.2174 81.25 73.284 80.394 74.8078 78.8703L123.558 30.1203C126.73 26.9472 126.73 21.8028 123.558 18.6297Z" fill="black"/>
</g>
</svg>
